<?xml version="1.0" standalone="no"?>
<!DOCTYPE svg PUBLIC "-//W3C//DTD SVG 20010904//EN"
 "http://www.w3.org/TR/2001/REC-SVG-20010904/DTD/svg10.dtd">
<svg version="1.0" xmlns="http://www.w3.org/2000/svg"
 width="1276.000000pt" height="1235.000000pt" viewBox="0 0 1276.000000 1235.000000"
 preserveAspectRatio="xMidYMid meet">

<g transform="translate(0.000000,1235.000000) scale(0.100000,-0.100000)"
fill="#000000" stroke="none">
<path d="M6300 12344 c-25 -2 -139 -11 -255 -20 -785 -58 -1729 -184 -2480
-330 -1661 -325 -2832 -791 -3479 -1385 l-58 -54 -10 -185 c-14 -257 -3 -1236
16 -1550 146 -2356 664 -4272 1553 -5749 411 -683 925 -1280 1496 -1738 811
-651 1813 -1077 2897 -1232 328 -47 383 -51 524 -35 1879 208 3370 1099 4428
2644 1061 1549 1679 3741 1798 6372 12 260 14 1062 4 1306 l-7 163 -61 57
c-773 723 -2421 1280 -4676 1581 -666 89 -1525 168 -1690 155z m403 -679 c19
-44 74 -178 123 -297 49 -119 92 -214 95 -210 3 4 59 133 124 287 66 154 120
281 120 282 1 2 45 0 98 -4 85 -5 97 -8 97 -24 0 -12 -13 -24 -35 -33 -20 -9
-39 -26 -45 -41 -11 -29 15 -475 31 -538 7 -26 20 -44 40 -55 20 -12 29 -25
29 -42 l0 -25 -142 5 c-79 3 -142 8 -140 13 1 4 2 15 2 26 0 13 9 20 30 25 48
9 51 33 35 244 -8 103 -15 198 -15 212 0 14 -4 20 -8 15 -5 -6 -60 -125 -123
-267 -105 -236 -116 -257 -141 -260 -26 -4 -29 0 -74 106 -200 480 -188 454
-195 411 -24 -143 -48 -374 -41 -400 5 -20 19 -35 40 -44 23 -10 32 -21 32
-38 0 -26 -3 -27 -147 -17 -85 6 -89 8 -86 28 3 13 17 27 34 33 18 7 35 24 43
45 8 18 28 144 45 280 34 272 32 292 -19 311 -21 8 -30 18 -30 35 0 23 1 23
95 20 l95 -3 33 -80z m-807 -246 c113 -236 159 -322 192 -357 23 -26 42 -51
42 -58 0 -11 -113 -24 -217 -24 -49 0 -53 2 -53 24 0 17 7 26 25 30 39 10 39
26 4 105 l-32 71 -86 -1 c-47 -1 -113 -4 -146 -8 l-59 -6 -19 -60 c-21 -71
-16 -102 18 -111 21 -5 44 -39 33 -49 -1 -2 -47 -6 -100 -10 l-98 -7 0 25 c0
16 8 31 21 37 28 15 47 61 169 413 101 287 105 297 130 297 25 0 36 -21 176
-311z m2067 242 c193 -21 245 -37 291 -92 86 -101 44 -293 -80 -365 -38 -22
-60 -28 -113 -28 -93 -1 -121 8 -121 40 0 25 1 25 53 19 93 -11 149 35 168
138 8 47 7 68 -6 112 -21 74 -64 107 -146 113 -54 4 -59 3 -59 -16 0 -12 -11
-126 -25 -254 -36 -336 -36 -339 38 -367 19 -8 27 -17 27 -36 0 -14 -3 -25 -7
-25 -5 0 -66 7 -138 15 -71 8 -138 15 -147 15 -12 0 -18 8 -18 24 0 18 7 25
30 29 16 4 36 17 44 30 16 24 66 429 66 535 0 48 -3 54 -30 70 -31 18 -44 38
-34 53 7 11 -4 12 207 -10z m-2957 -10 l32 -12 4 -87 c2 -48 4 -88 3 -89 -1
-2 -15 -6 -32 -9 -29 -6 -31 -4 -38 27 -12 57 -44 108 -77 125 -70 36 -207 -5
-259 -77 -65 -92 -65 -269 0 -396 77 -153 226 -195 387 -109 61 32 70 34 83
21 14 -13 13 -17 -4 -34 -42 -42 -136 -89 -201 -101 -170 -32 -308 26 -389
163 -58 100 -74 267 -35 371 37 98 132 183 239 213 55 15 240 11 287 -6z
m1874 -1261 c1177 -44 2288 -214 3229 -492 l174 -51 661 122 c363 68 821 152
1016 189 195 36 358 70 361 75 23 34 22 -1057 -1 -1443 -32 -546 -82 -1048
-145 -1478 -41 -278 -72 -457 -74 -422 -1 17 -29 53 -90 115 -87 88 -89 91
-95 148 -3 31 -4 57 -1 57 34 0 105 -68 105 -100 0 -22 20 -30 71 -30 42 0 40
-5 44 92 1 15 4 31 8 34 4 4 7 22 7 41 0 24 -4 33 -16 33 -20 0 -139 120 -245
247 -80 94 -96 129 -134 283 -9 36 -21 83 -27 105 l-10 40 -20 -50 c-11 -27
-23 -88 -28 -133 -6 -73 -14 -98 -59 -187 -48 -98 -55 -107 -129 -162 -43 -32
-92 -64 -110 -71 -18 -7 -45 -17 -61 -23 -16 -6 -58 -35 -92 -65 -61 -53 -75
-60 -128 -66 -14 -2 -27 -9 -29 -17 -4 -12 7 -13 59 -8 35 3 73 9 84 13 15 6
10 -5 -18 -39 -21 -26 -33 -47 -27 -47 15 0 87 38 95 49 3 6 18 19 34 30 l29
21 -18 -58 c-10 -31 -17 -58 -16 -60 2 -1 16 3 33 8 21 8 43 31 72 77 l43 67
21 -49 c11 -28 21 -51 21 -52 1 -1 29 2 64 6 60 7 63 6 60 -13 -2 -13 -44 -48
-118 -99 -147 -101 -191 -123 -325 -164 -105 -32 -113 -37 -172 -96 -61 -60
-79 -97 -47 -97 9 0 30 10 47 22 l32 23 -23 -32 c-43 -61 -19 -71 48 -20 68
51 74 55 98 62 23 7 23 6 -8 -54 -43 -87 3 -77 87 18 28 32 44 43 57 38 15 -6
15 -9 -4 -46 -11 -22 -20 -43 -20 -46 0 -3 21 10 46 30 37 28 56 35 91 35 l44
0 -30 -37 c-17 -21 -31 -43 -31 -50 0 -16 -61 -73 -78 -73 -24 0 -257 -80
-287 -98 -24 -15 -37 -16 -71 -9 -80 19 -179 -36 -108 -60 l27 -9 -33 -21
c-19 -12 -38 -19 -43 -16 -5 3 -29 46 -53 96 -30 62 -44 103 -44 132 0 42 -25
143 -40 158 -4 5 -18 -34 -30 -85 -43 -176 -59 -203 -234 -385 -43 -45 -88
-85 -100 -89 -11 -4 -50 -27 -86 -53 -75 -53 -63 -65 33 -32 31 11 57 17 57
13 0 -4 -11 -24 -25 -44 l-24 -36 22 -6 c12 -3 43 -6 69 -6 44 0 47 2 65 37
10 21 33 46 52 57 l34 20 -6 -55 c-7 -53 -9 -55 -119 -162 -112 -107 -125
-116 -286 -188 l-73 -32 -32 31 c-18 17 -54 40 -81 52 -91 39 -140 83 -180
163 -23 48 -36 88 -36 114 0 43 -17 103 -29 103 -4 0 -14 -26 -21 -57 -26
-120 -46 -155 -146 -262 -53 -55 -101 -101 -107 -101 -7 0 -37 -18 -67 -40
-60 -44 -49 -53 29 -25 44 15 49 11 26 -19 -23 -31 -18 -36 35 -36 44 0 52 3
60 24 8 23 56 64 64 55 2 -2 1 -21 -2 -42 -3 -31 -18 -50 -92 -120 -48 -45
-98 -87 -111 -94 -13 -6 -59 -27 -101 -46 -64 -30 -81 -42 -95 -71 -21 -45
-12 -54 32 -33 35 17 35 16 25 -2 -23 -43 1 -42 41 1 27 30 29 31 29 10 0 -31
15 -28 42 9 15 20 29 29 41 25 10 -2 31 7 47 21 17 14 30 20 30 13 0 -24 -22
-51 -53 -64 -39 -16 -57 -33 -125 -112 -40 -47 -58 -61 -73 -57 -11 3 -53 41
-93 85 -65 71 -76 88 -91 147 -15 54 -35 101 -35 80 0 -33 -27 -134 -46 -172
-23 -45 -98 -107 -129 -107 -6 0 -27 -13 -47 -30 -20 -16 -47 -35 -60 -40 -20
-9 -18 -10 14 -7 30 2 35 0 26 -10 -19 -24 0 -26 31 -3 l31 21 -10 -25 c-14
-38 13 -34 41 6 22 31 23 31 33 9 8 -18 15 -21 38 -16 17 4 28 2 28 -4 0 -18
-149 -111 -197 -123 -68 -17 -156 -88 -109 -88 8 0 16 -5 18 -12 3 -8 16 -5
41 11 39 24 44 22 27 -10 -16 -29 14 -25 38 6 24 30 36 32 29 4 -5 -19 -4 -20
18 -5 14 9 31 16 39 16 13 0 12 -6 -5 -34 -16 -28 -33 -39 -97 -61 -42 -15
-99 -30 -125 -32 -37 -4 -47 -9 -45 -21 1 -10 -12 -31 -30 -49 -18 -17 -32
-36 -32 -42 0 -16 26 -13 40 4 7 8 17 12 22 9 5 -3 20 4 32 15 l23 22 -4 -28
-4 -28 25 30 26 30 1 -25 0 -25 10 25 c8 19 12 21 18 11 10 -16 31 -6 31 14 0
22 29 26 40 5 10 -19 12 -19 35 7 13 16 27 24 32 20 4 -5 0 -13 -10 -18 -9 -6
-23 -22 -31 -37 -11 -21 -27 -31 -67 -41 -89 -23 -203 -86 -243 -135 -20 -24
-36 -49 -36 -55 0 -17 17 -13 32 7 24 34 39 36 33 5 l-6 -28 18 23 c10 12 26
33 35 45 17 22 17 22 18 -15 0 -39 -31 -79 -86 -108 -16 -9 -30 -24 -32 -34
-2 -11 -22 -45 -43 -76 -39 -57 -47 -80 -30 -80 5 0 14 7 21 15 9 11 16 12 31
2 21 -13 27 -8 81 65 l17 23 -6 -32 c-8 -48 21 -44 35 5 9 29 21 42 48 55 l36
18 -6 -26 c-10 -38 6 -29 36 21 28 45 48 51 48 13 0 -31 17 -22 52 26 33 44
64 57 74 32 9 -24 -82 -122 -133 -143 -17 -8 -34 -23 -38 -34 -4 -12 -21 -24
-43 -30 -38 -10 -168 -124 -191 -167 -21 -41 9 -36 49 8 49 54 64 45 19 -11
l-34 -42 -149 6 c-82 3 -193 6 -248 6 l-98 0 0 132 0 133 -129 -129 -128 -128
-260 7 -260 8 -186 192 -186 192 137 135 c75 74 261 253 412 398 151 145 343
330 425 410 83 80 271 263 420 405 148 143 328 316 400 385 71 69 193 186 270
260 77 74 199 191 270 260 72 69 197 191 280 271 82 79 206 198 274 264 68 66
139 134 156 150 18 17 88 84 156 150 376 364 717 692 1259 1214 l605 583 56
351 c31 194 56 353 55 353 0 1 -169 -35 -375 -81 l-374 -83 -62 -63 c-34 -35
-252 -262 -485 -504 -233 -242 -533 -552 -666 -690 -132 -137 -998 -1035
-1924 -1995 -925 -960 -1686 -1745 -1691 -1745 -5 0 -777 797 -1715 1770 -939
974 -1813 1880 -1943 2015 -752 779 -1063 1101 -1113 1154 l-55 58 -309 68
c-170 38 -338 75 -374 83 -36 9 -66 15 -66 14 -2 -2 113 -696 116 -703 0 -1
240 -232 532 -514 293 -282 603 -581 688 -664 85 -82 214 -207 285 -276 72
-69 200 -192 285 -275 244 -235 406 -391 675 -650 138 -132 317 -305 400 -385
82 -80 220 -212 305 -295 85 -82 216 -208 290 -280 284 -274 399 -385 529
-510 74 -72 146 -141 160 -155 15 -14 87 -83 162 -155 74 -71 245 -236 379
-366 135 -130 274 -263 309 -296 l63 -59 -187 -195 -187 -194 -262 -7 -261 -7
-127 127 -128 127 0 -127 0 -126 -62 -6 c-35 -3 -169 -8 -298 -11 -129 -3
-301 -8 -381 -12 l-145 -6 -13 69 c-9 48 -10 77 -3 94 l10 25 16 -37 c9 -21
16 -42 16 -49 0 -20 25 -3 28 20 4 28 25 22 32 -9 7 -28 30 -39 30 -14 0 16 1
16 16 -2 15 -18 15 -18 10 6 -2 14 -8 36 -12 50 -6 21 2 16 49 -27 57 -54 86
-69 68 -35 -5 9 -21 28 -35 41 -17 16 -22 27 -15 32 6 4 26 -10 46 -32 38 -42
53 -48 53 -23 0 21 -159 174 -182 174 -10 0 -34 15 -53 32 -18 18 -54 46 -79
61 -24 15 -50 41 -58 57 -7 16 -21 33 -32 37 -17 8 -18 10 -2 26 10 9 21 17
25 17 4 0 24 -23 44 -50 42 -56 57 -62 57 -25 0 38 17 30 50 -22 27 -45 30
-46 30 -21 l0 28 35 -17 c27 -13 38 -26 46 -55 12 -47 27 -49 31 -5 l3 32 28
-42 c26 -41 67 -60 67 -31 0 6 9 3 20 -7 47 -43 33 18 -20 85 -16 21 -27 40
-23 44 9 9 -27 46 -46 47 -23 0 -81 76 -81 105 0 35 16 29 46 -17 28 -45 40
-47 24 -5 -9 24 -8 26 9 17 10 -6 21 -17 25 -26 6 -16 36 -21 36 -6 0 20 -99
110 -146 134 -27 13 -82 35 -123 48 -40 13 -76 31 -78 39 -3 8 -17 25 -32 37
-20 18 -22 23 -9 23 9 0 25 -12 36 -27 19 -26 20 -27 26 -5 10 30 34 28 47 -5
7 -20 13 -23 21 -15 9 9 15 7 25 -10 l12 -23 1 25 0 25 26 -30 25 -30 -6 30
c-6 28 -6 29 13 12 10 -9 25 -17 33 -17 8 0 20 -5 26 -11 6 -6 19 -9 29 -7 16
4 12 11 -23 45 -23 23 -37 43 -31 45 24 8 -4 28 -39 28 -31 0 -84 15 -185 52
-24 9 -65 65 -55 74 2 2 20 -5 40 -15 36 -18 36 -18 26 1 -18 34 0 33 31 0 34
-37 57 -44 40 -11 -17 30 -5 34 28 10 35 -25 46 -27 39 -7 -4 10 -1 13 9 9 24
-9 16 22 -14 48 -15 14 -54 33 -87 43 -54 16 -186 93 -200 117 -4 5 7 9 24 9
21 0 34 7 42 21 11 21 12 21 31 -10 23 -36 53 -43 43 -9 l-7 21 36 -22 c35
-22 48 -18 23 8 -10 11 -5 12 26 7 23 -4 37 -3 37 4 0 5 -9 10 -19 10 -11 0
-33 11 -49 25 -16 13 -49 33 -73 44 -83 36 -149 126 -149 201 0 16 -5 41 -11
57 -11 27 -12 25 -34 -49 -16 -55 -34 -91 -63 -126 -53 -63 -118 -122 -135
-122 -8 0 -44 36 -80 79 -45 52 -80 84 -105 94 -22 9 -43 26 -50 41 -14 32
-10 32 28 5 16 -12 35 -19 43 -16 9 3 23 -6 36 -24 26 -35 41 -37 41 -6 0 21
2 20 31 -10 35 -38 67 -46 49 -13 -11 21 -1 27 17 9 6 -6 20 -9 31 -7 19 3 19
5 5 39 -12 31 -25 42 -86 69 -40 18 -87 39 -104 47 -18 8 -73 54 -123 102 -83
79 -90 89 -90 124 l0 37 26 -16 c14 -9 32 -30 40 -45 12 -23 21 -29 47 -28 17
0 40 4 50 8 17 6 17 8 -4 35 l-23 29 30 -7 c16 -3 45 -9 64 -12 l35 -6 -35 27
c-19 14 -51 35 -71 45 -43 23 -202 189 -223 235 -9 17 -25 71 -38 120 -22 88
-22 88 -35 57 -7 -17 -15 -57 -18 -88 -12 -123 -112 -251 -215 -277 -14 -3
-45 -23 -69 -43 -38 -33 -46 -36 -70 -27 -14 6 -64 26 -110 44 -74 30 -98 47
-202 142 -65 59 -123 115 -127 125 -5 9 -12 38 -14 64 -5 46 -5 47 16 36 35
-18 66 -50 66 -69 0 -28 36 -41 91 -34 27 4 51 10 54 14 2 4 -7 24 -21 44 -29
43 -26 44 51 17 94 -32 107 -26 44 21 -30 22 -74 51 -99 64 -46 24 -117 93
-227 220 -63 73 -90 136 -123 288 -7 31 -17 57 -21 57 -13 0 -31 -63 -39 -137
-7 -69 -52 -185 -93 -237 -14 -19 -15 -19 -48 2 l-33 21 27 10 c67 26 -3 67
-100 59 -41 -4 -64 0 -92 14 -20 10 -94 37 -166 60 -145 47 -171 62 -195 116
-9 20 -24 43 -33 51 -29 24 -19 34 28 29 32 -4 58 -16 90 -42 25 -21 45 -35
45 -31 0 3 -9 24 -21 47 -15 30 -18 43 -9 52 8 8 23 -2 58 -40 48 -51 112 -94
112 -74 0 6 -12 34 -26 62 l-26 51 28 -7 c15 -4 43 -21 62 -37 67 -59 112 -64
80 -8 -18 30 -10 40 12 14 15 -18 60 -20 60 -2 0 7 -30 42 -67 79 -66 64 -72
67 -173 97 -125 38 -171 60 -315 158 -159 108 -171 129 -70 118 l65 -7 21 47
c24 53 29 52 74 -24 27 -46 77 -83 91 -68 4 3 -1 27 -10 53 -9 26 -14 49 -12
51 2 2 16 -7 32 -20 48 -38 88 -64 114 -72 23 -7 22 -4 -15 40 l-39 48 34 -7
c78 -16 130 -19 130 -7 0 6 -6 13 -12 15 -7 2 -31 9 -54 15 -24 6 -66 33 -103
65 -40 34 -83 62 -115 72 -51 17 -134 69 -192 121 -54 49 -134 220 -134 287 0
45 -23 144 -42 179 -10 19 -15 6 -44 -103 -17 -69 -40 -146 -51 -172 -22 -58
-233 -305 -244 -286 -7 13 -46 336 -74 603 -24 241 -53 678 -66 982 -12 293
-9 1186 3 1199 4 4 279 -43 610 -105 332 -62 788 -146 1015 -188 l412 -77 178
53 c1205 360 2804 545 4243 491z m-6184 -3126 c-3 -9 -6 -33 -6 -55 0 -31 -8
-47 -36 -79 -20 -22 -40 -38 -44 -35 -4 2 -10 26 -14 51 -7 55 7 84 57 114 39
24 51 25 43 4z m11401 -441 c-3 -10 -5 -4 -5 12 0 17 2 24 5 18 2 -7 2 -21 0
-30z m-10 -55 c-3 -7 -5 -2 -5 12 0 14 2 19 5 13 2 -7 2 -19 0 -25z m-10 -60
c-3 -7 -5 -2 -5 12 0 14 2 19 5 13 2 -7 2 -19 0 -25z m-10793 -279 c14 -11 35
-37 45 -57 l19 -36 21 41 c11 23 25 44 31 48 15 9 60 -25 60 -47 0 -28 18 -58
36 -58 8 0 21 14 28 31 l13 31 23 -56 c27 -63 40 -58 40 14 l0 45 20 -32 c27
-46 36 -83 18 -83 -7 0 -30 -11 -50 -25 -20 -14 -42 -25 -48 -25 -7 0 -56 14
-111 31 -79 24 -99 34 -99 49 0 24 -54 86 -91 106 -18 9 -26 19 -23 29 8 21
37 19 68 -6z m10103 -55 c4 -10 -1 -20 -11 -26 -40 -22 -87 -72 -94 -101 -7
-28 -15 -32 -114 -63 l-106 -34 -56 34 -55 33 27 54 27 54 5 -65 6 -65 17 40
c10 22 22 49 26 60 8 19 9 18 19 -7 6 -14 16 -29 22 -33 17 -11 40 15 40 45 0
21 9 33 32 48 l32 21 25 -45 c13 -24 28 -44 31 -44 4 0 13 13 20 29 16 41 58
77 93 80 4 1 10 -6 14 -15z m-9680 -26 c28 -26 29 -34 4 -47 -16 -9 -20 -5
-29 29 -11 46 -7 49 25 18z m9217 -86 c-7 -34 -24 -41 -43 -18 -9 11 -6 18 15
35 33 26 36 23 28 -17z m-9185 -110 c12 -22 11 -23 -8 -13 -12 7 -18 17 -14
27 6 17 6 17 22 -14z m131 -55 c0 -8 -3 -17 -6 -20 -10 -9 -46 12 -39 24 9 14
45 11 45 -4z m9018 -18 c-21 -14 -26 -10 -21 11 4 16 8 18 20 9 11 -10 11 -14
1 -20z m-110 -55 c-9 -9 -24 -14 -32 -11 -27 11 -17 27 16 27 30 0 31 -1 16
-16z m-9105 -26 c23 -12 22 -40 -3 -56 -15 -9 -26 -10 -40 -2 -11 6 -20 12
-20 13 0 1 -4 17 -9 35 l-10 33 32 -6 c18 -4 40 -11 50 -17z m9328 -92 c-13
-33 -35 -42 -66 -28 -36 17 -20 52 31 67 44 12 51 5 35 -39z m-9721 -136 c0
-5 -4 -10 -9 -10 -6 0 -13 5 -16 10 -3 6 1 10 9 10 9 0 16 -4 16 -10z m1529
-58 c10 -25 16 -27 52 -24 60 6 48 -12 -55 -82 -61 -41 -117 -70 -180 -91
l-91 -30 -75 77 c-54 56 -84 79 -109 84 -26 5 -37 15 -48 42 -8 19 -12 36 -9
39 3 3 22 -8 43 -25 31 -24 41 -27 56 -18 15 9 20 7 29 -9 7 -11 25 -33 42
-49 l31 -29 3 32 c4 39 12 39 37 2 19 -29 63 -57 72 -47 3 3 -4 20 -16 39 -23
37 -28 62 -8 37 20 -27 60 -50 84 -50 27 0 26 -2 12 39 -9 27 -8 35 6 51 25
28 36 25 25 -6 -14 -36 -13 -43 10 -37 11 3 30 23 42 44 12 22 25 39 29 39 3
0 12 -12 18 -28z m8551 -6 c0 -2 -9 -6 -20 -9 -11 -3 -18 -1 -14 4 5 9 34 13
34 5z m-1486 -108 c25 -17 35 -8 25 24 -11 41 -8 43 20 14 19 -20 21 -28 12
-44 -6 -12 -11 -25 -11 -31 0 -20 53 -11 86 14 l33 25 -26 -45 -25 -45 28 10
c15 6 42 28 60 48 l33 37 1 -32 c0 -31 1 -32 24 -22 13 6 31 26 40 45 14 30
19 33 36 24 17 -9 28 -6 62 19 23 17 43 29 45 27 2 -1 -3 -19 -11 -38 -12 -27
-25 -39 -60 -52 -31 -12 -65 -39 -109 -86 l-64 -69 -74 23 c-90 28 -123 44
-216 108 -89 62 -99 80 -39 72 42 -6 44 -5 55 27 l11 33 27 -39 c15 -22 31
-43 37 -47z m-8497 12 c15 0 34 -7 44 -16 27 -24 49 -11 49 30 0 26 5 36 21
41 11 4 22 5 23 3 2 -1 15 -21 29 -43 l27 -39 -103 -37 c-104 -36 -118 -37
-151 -3 -20 20 -20 34 -1 34 13 0 10 10 -12 48 l-27 47 37 -32 c22 -19 49 -33
64 -33z m9763 -55 c0 -43 16 -53 44 -26 12 12 35 21 51 21 19 0 41 11 63 33
l35 32 -28 -47 c-21 -37 -24 -48 -12 -48 25 0 8 -39 -24 -56 -30 -15 -33 -14
-217 51 -15 6 -2 36 31 72 28 31 57 15 57 -32z m-8846 -102 c48 -133 58 -153
77 -153 14 0 19 7 19 26 l0 26 20 -23 c22 -27 25 -16 11 44 -15 61 12 46 54
-30 34 -64 50 -68 41 -13 -4 26 -2 40 5 40 21 0 66 -33 83 -61 l16 -27 -50
-17 c-27 -9 -52 -20 -54 -24 -3 -4 -31 -6 -63 -4 -118 5 -293 129 -307 218 -5
29 -4 36 3 25 6 -8 11 -23 11 -32 0 -29 20 -31 30 -2 l10 26 18 -23 c10 -13
22 -33 26 -44 8 -19 9 -19 18 5 5 14 8 40 6 58 -6 46 7 39 26 -15z m-604 -6
c0 -7 -14 -21 -31 -31 -17 -10 -40 -34 -52 -54 l-21 -35 -17 24 c-10 13 -27
36 -39 51 -24 31 -25 38 -5 38 9 0 23 -16 32 -35 20 -43 27 -44 43 -5 14 34
45 60 72 60 10 0 18 -6 18 -13z m994 -58 l-15 -31 38 26 c21 14 48 26 61 26
l23 0 -20 -26 c-12 -15 -21 -32 -21 -39 0 -7 -7 -16 -16 -19 -14 -5 -41 9 -93
51 -8 6 42 52 50 47 5 -3 2 -19 -7 -35z m7653 8 c-3 -18 0 -40 7 -48 10 -14
14 -11 36 22 l24 39 13 -32 c16 -37 20 -35 32 18 l9 39 1 -38 c1 -32 -6 -46
-46 -88 -65 -70 -194 -139 -258 -139 -48 0 -165 38 -165 54 0 16 69 76 88 76
18 0 20 -3 11 -32 -12 -43 -11 -48 4 -42 8 3 24 24 37 47 39 71 81 107 60 51
-6 -14 -10 -37 -10 -51 0 -25 0 -26 20 -8 20 18 20 17 20 -9 0 -21 4 -27 17
-24 11 2 27 30 46 78 38 104 46 120 53 120 4 0 4 -15 1 -33z m641 -20 c7 -6
21 -26 31 -44 l17 -34 22 40 c15 27 28 38 37 34 12 -4 10 -11 -10 -35 -14 -16
-25 -33 -25 -38 0 -5 -7 -16 -16 -25 -15 -14 -18 -13 -33 17 -10 18 -34 44
-54 57 -28 18 -34 27 -26 37 11 13 33 9 57 -9z m-1030 -40 l22 -23 -44 -32
c-40 -29 -46 -31 -60 -16 -9 8 -16 20 -16 26 0 6 -7 20 -17 30 -15 17 -14 18
15 18 17 0 34 -4 37 -10 3 -5 15 -15 26 -21 19 -9 19 -9 10 10 -24 44 -7 55
27 18z m-6699 -209 c21 -51 40 -63 42 -25 0 12 3 16 6 10 11 -29 25 -11 19 25
l-6 37 17 -23 c10 -13 28 -35 41 -50 l23 -27 -6 40 c-5 35 -4 38 8 23 8 -10
19 -18 25 -18 6 0 25 -18 42 -40 35 -44 55 -52 45 -17 -7 21 -6 21 11 5 17
-17 17 -19 -21 -58 -73 -75 -133 -86 -195 -33 -26 22 -43 52 -22 40 12 -8 112
-36 112 -32 0 2 -44 27 -97 56 -108 57 -184 121 -182 154 1 16 2 17 6 3 6 -23
12 -23 29 -1 11 16 13 16 25 -9 15 -34 29 -27 30 15 l0 32 14 -30 c8 -16 23
-51 34 -77z m-855 69 c16 -12 17 -15 3 -20 -8 -3 -23 3 -33 14 -14 15 -14 19
-2 19 8 0 22 -6 32 -13z m369 7 c3 -3 -12 -23 -34 -43 -21 -21 -39 -45 -39
-53 0 -20 -47 -29 -105 -21 -47 6 -56 21 -35 53 9 13 12 13 21 -2 14 -25 28
-22 35 7 3 13 13 30 21 36 12 10 19 7 38 -17 14 -16 24 -23 25 -16 0 15 44 62
58 62 5 0 11 -3 15 -6z m6643 -61 c-3 -16 -2 -34 3 -42 6 -10 13 -6 27 18 l18
31 12 -23 c10 -17 14 -19 17 -7 3 8 8 22 10 30 4 9 6 7 6 -7 2 -39 -66 -100
-178 -163 -107 -60 -118 -72 -41 -45 57 20 63 19 45 -9 -9 -13 -36 -31 -60
-40 -41 -16 -47 -16 -78 -1 -18 8 -52 35 -75 58 l-43 43 22 20 c22 19 22 19
15 -3 -11 -34 9 -28 40 12 14 19 35 35 45 35 11 0 18 5 17 11 -2 6 2 13 9 16
8 3 9 -6 3 -31 -11 -48 3 -45 32 6 29 53 51 63 38 17 -10 -35 -4 -52 9 -30 7
11 11 10 19 -4 17 -32 31 -9 77 123 8 23 17 12 11 -15z m-6890 -40 c-2 -3 -9
-2 -15 1 -7 5 -6 16 2 34 l12 27 3 -29 c2 -15 1 -30 -2 -33z m-46 32 c0 -8 -7
-15 -16 -15 -14 0 -14 3 -4 15 7 8 14 15 16 15 2 0 4 -7 4 -15z m1110 -18 c0
-29 -7 -37 -26 -30 -17 6 -18 25 -2 41 18 18 28 14 28 -11z m6295 17 c8 -4 23
-20 31 -36 l16 -30 19 31 c17 28 21 30 39 19 11 -7 20 -23 20 -35 0 -27 27
-31 37 -7 5 14 8 12 19 -7 19 -35 18 -36 -32 -47 -59 -13 -110 2 -118 34 -4
13 -20 34 -36 46 -42 30 -39 48 5 32z m363 -10 c-10 -10 -23 -14 -34 -10 -16
6 -16 8 -4 16 8 6 24 10 35 10 18 0 18 -1 3 -16z m-128 -70 c0 -8 -7 -14 -15
-14 -10 0 -15 10 -15 26 0 22 2 25 15 14 8 -7 15 -19 15 -26z m-1043 -11 c3
-9 -26 -28 -33 -21 -1 2 -6 16 -10 33 -7 29 -7 29 16 14 13 -9 25 -20 27 -26z
m1088 28 c3 -5 1 -12 -5 -16 -5 -3 -10 1 -10 9 0 18 6 21 15 7z m-7635 -151
c0 -5 -2 -10 -4 -10 -3 0 -8 5 -11 10 -3 6 -1 10 4 10 6 0 11 -4 11 -10z
m-792 -52 c19 -19 15 -26 -28 -53 -22 -14 -40 -33 -40 -43 0 -9 -13 -30 -30
-45 l-30 -29 -30 22 c-16 12 -30 24 -30 27 0 3 19 31 43 63 40 56 54 64 113
69 11 0 25 -4 32 -11z m1717 -8 c3 -5 1 -10 -4 -10 -6 0 -11 5 -11 10 0 6 2
10 4 10 3 0 8 -4 11 -10z m-55 -25 c15 10 20 -12 5 -25 -17 -14 -35 -5 -35 19
0 24 14 37 18 17 2 -9 7 -14 12 -11z m6717 19 c-3 -3 -12 -4 -19 -1 -8 3 -5 6
6 6 11 1 17 -2 13 -5z m-8638 -63 c-15 -5 -22 6 -14 19 6 9 10 9 16 -1 5 -8 4
-15 -2 -18z m9471 18 c0 -6 8 -9 18 -7 11 2 32 -16 63 -57 50 -65 50 -74 -3
-101 -25 -13 -28 -13 -28 0 0 9 -8 20 -19 25 -10 6 -21 23 -24 38 -4 20 -16
34 -41 46 -41 19 -47 43 -13 57 30 12 47 12 47 -1z m-1760 -13 c0 -3 -4 -8
-10 -11 -5 -3 -10 -1 -10 4 0 6 5 11 10 11 6 0 10 -2 10 -4z m60 -36 c0 -19
-5 -30 -14 -30 -22 0 -28 31 -9 46 24 18 23 18 23 -16z m-5734 -27 c-11 -11
-17 4 -9 23 7 18 8 18 11 1 2 -10 1 -21 -2 -24z m53 -17 c-13 -14 -31 7 -23
28 6 15 7 15 20 -1 8 -11 9 -22 3 -27z m7595 25 c3 -5 -1 -11 -9 -15 -9 -3
-15 0 -15 9 0 16 16 20 24 6z m-2044 -61 c0 -11 -4 -20 -9 -20 -5 0 -7 9 -4
20 3 11 7 20 9 20 2 0 4 -9 4 -20z m-36 -7 c8 -20 -14 -36 -31 -21 -15 12 -18
32 -3 23 6 -3 10 -1 10 4 0 17 17 13 24 -6z m-5032 -135 c17 -14 32 -48 20
-48 -13 1 -52 38 -52 49 0 15 13 14 32 -1z m-1627 -49 c48 -21 48 -21 24 -35
-21 -11 -25 -11 -34 3 -5 9 -18 25 -27 35 -22 23 -21 23 37 -3z m928 -26 c18
-6 20 -12 11 -37 -11 -29 -40 -18 -52 20 -9 32 -9 35 6 29 9 -4 25 -10 35 -12z
m5247 2 c0 -13 -38 -41 -45 -33 -1 2 1 13 6 26 9 24 39 30 39 7z m1631 -44
c-10 -10 -20 -24 -23 -31 -3 -9 -10 -9 -31 1 l-28 13 43 17 c56 23 62 23 39 0z
m-911 -15 c0 -1 -5 -17 -11 -35 -13 -36 -36 -41 -48 -8 -7 17 -4 25 13 34 20
12 46 17 46 9z m-7160 -130 c48 -142 60 -143 33 -1 l-5 30 26 -25 c20 -18 26
-31 21 -48 -5 -22 -3 -24 19 -18 23 6 26 2 35 -31 5 -21 13 -64 16 -95 4 -32
14 -63 23 -70 14 -12 15 -3 9 80 -3 50 -4 92 -2 92 2 0 17 -38 34 -85 55 -153
81 -180 91 -99 l5 39 17 -42 c10 -26 23 -43 32 -43 9 0 16 1 16 3 0 14 -43
153 -59 191 -19 43 -20 50 -6 69 l15 21 0 -21 c0 -53 34 -31 45 30 6 29 10 35
20 27 7 -6 15 -24 19 -41 8 -43 27 -32 49 27 25 68 34 73 48 26 10 -34 9 -52
-5 -106 -9 -36 -16 -75 -16 -88 1 -23 1 -23 16 -3 14 19 15 19 20 -3 9 -34 22
-26 34 21 6 23 17 60 23 82 l12 40 6 -40 c4 -33 7 -36 14 -20 4 11 15 36 23
55 l16 35 4 -30 c6 -48 19 -51 27 -6 8 48 15 51 37 14 l16 -27 28 92 c15 51
31 89 36 84 8 -8 34 -499 27 -507 -3 -2 -78 -8 -169 -14 -91 -6 -205 -14 -255
-17 -49 -4 -166 -12 -259 -18 -116 -8 -169 -9 -172 -1 -5 12 -44 381 -44 413
0 13 4 20 10 17 6 -4 10 21 10 67 1 66 2 71 15 54 8 -10 28 -60 45 -110z m949
72 c22 -68 21 -81 -9 -117 l-28 -33 -8 48 c-5 33 -3 49 5 52 6 2 11 25 11 55
0 56 11 54 29 -5z m-1161 -80 c6 -68 14 -198 17 -289 l6 -166 -63 -6 c-35 -4
-110 -9 -168 -13 l-105 -6 -42 86 c-44 87 -51 119 -33 146 7 11 10 4 10 -27 0
-30 4 -43 14 -43 9 0 23 35 41 103 36 131 44 146 45 80 0 -29 4 -53 9 -53 5 0
17 24 25 54 9 29 23 59 31 66 13 11 15 6 15 -39 0 -69 16 -64 31 9 6 33 15 58
19 55 4 -3 15 -21 25 -41 13 -28 19 -33 26 -23 9 14 39 109 59 187 6 23 14 42
19 42 5 0 13 -55 19 -122z m7611 -92 l1 -49 -34 39 -34 39 15 50 c8 27 20 59
26 70 10 17 13 11 18 -40 4 -33 7 -82 8 -109z m151 67 c12 -46 26 -83 31 -83
4 0 13 14 21 30 l13 31 17 -53 16 -53 1 45 c1 38 3 42 15 30 8 -8 18 -30 23
-48 11 -43 28 -40 27 6 -2 31 1 27 18 -28 29 -96 39 -120 49 -114 5 3 9 17 10
32 0 25 1 26 9 6 11 -27 30 -40 30 -21 0 8 -9 48 -19 89 -17 66 -18 81 -7 119
14 48 18 45 51 -36 22 -55 38 -64 43 -23 2 14 10 32 17 38 16 13 14 15 32 -44
12 -40 33 -46 33 -10 l0 28 17 -23 c15 -22 15 -27 -2 -70 -22 -56 -55 -171
-55 -189 0 -24 24 -7 41 28 l16 34 8 -32 c3 -18 13 -32 21 -32 16 0 29 25 75
148 17 46 32 82 34 80 2 -2 -1 -40 -7 -86 -6 -45 -8 -86 -4 -89 14 -14 27 17
42 102 8 49 18 93 20 97 3 4 14 3 25 -2 17 -9 19 -7 19 18 0 17 9 37 24 51
l23 22 -9 -51 c-18 -102 -3 -95 36 15 21 61 45 117 52 125 13 13 14 5 12 -60
-2 -55 0 -74 9 -73 9 2 11 -9 8 -40 -6 -49 -35 -324 -35 -330 0 -2 -10 -3 -22
-1 -13 2 -162 13 -333 24 -495 32 -505 32 -509 39 -1 3 3 96 10 206 7 110 13
211 13 225 1 39 16 11 41 -77z m1015 7 c25 -100 46 -160 56 -160 5 0 9 7 9 15
0 8 4 15 9 15 5 0 14 12 19 28 l9 27 11 -40 c27 -106 26 -105 30 -47 5 77 26
68 56 -25 24 -73 40 -69 33 10 -5 60 -5 61 8 27 8 -19 23 -71 35 -115 25 -97
36 -117 50 -95 5 8 10 31 10 50 l1 35 12 -34 c7 -19 18 -37 26 -39 16 -5 12
22 -19 153 -20 78 -20 81 -1 135 l18 55 21 -45 c11 -25 28 -64 38 -87 21 -54
40 -55 49 -4 6 38 29 70 41 58 3 -3 10 -25 16 -49 9 -42 7 -48 -63 -190 l-73
-148 -36 0 c-44 0 -424 32 -428 36 -2 1 1 105 7 231 15 309 23 335 56 203z
m-8271 24 c-16 -38 -17 -39 -27 -15 -10 20 -8 26 12 42 31 26 35 20 15 -27z
m-903 -25 c15 -48 15 -54 -7 -137 l-22 -87 -30 62 -30 63 25 67 c37 103 41
105 64 32z m8638 -16 c19 -16 20 -20 9 -36 -13 -17 -15 -16 -31 17 -18 39 -11
46 22 19z m-6982 -86 c-22 -32 -15 -47 13 -29 13 8 21 8 26 1 3 -6 17 -8 30
-5 17 5 26 1 34 -14 14 -26 29 -25 38 1 8 20 9 19 21 -7 18 -39 33 -18 20 29
-13 49 -5 73 29 85 l27 9 -1 -57 c-1 -35 -11 -81 -27 -121 -33 -83 -42 -119
-29 -119 5 0 13 7 16 17 6 15 8 14 20 -2 12 -17 16 -13 36 43 13 34 25 62 28
62 2 0 2 -18 -2 -39 -3 -22 -2 -42 4 -46 5 -3 12 17 16 46 5 37 15 61 36 83
l29 31 -7 -37 c-9 -54 2 -47 21 15 10 28 21 56 25 60 11 12 21 -93 14 -149
-11 -100 16 -89 -246 -102 -128 -7 -245 -12 -260 -12 -28 0 -28 1 -29 68 0 37
-3 97 -8 135 -6 60 -5 69 12 85 15 12 21 14 24 5 9 -24 41 -13 69 25 l29 37 5
-35 c4 -25 0 -43 -13 -63z m6281 -47 c6 0 15 7 20 15 7 14 10 13 25 -3 14 -16
16 -32 11 -110 -4 -50 -10 -96 -14 -102 -5 -8 -45 -9 -150 -3 l-143 8 -32 76
c-24 57 -29 79 -21 92 7 12 7 25 -1 47 -13 35 -1 40 36 14 21 -15 23 -22 17
-70 -4 -37 -3 -54 5 -54 6 0 13 9 16 20 6 23 23 27 23 5 0 -22 28 -18 35 5 5
16 10 18 26 9 15 -8 24 -7 35 2 11 9 18 9 26 1 7 -7 18 -12 26 -12 11 0 10 7
-6 33 -12 22 -17 44 -14 66 l4 32 33 -35 c18 -20 37 -36 43 -36z m-5753 -1 c4
-21 12 -45 19 -55 13 -17 14 -16 21 7 8 23 8 23 21 -11 10 -27 13 -30 13 -12
1 32 17 27 31 -10 12 -33 12 -33 19 -8 6 22 8 20 19 -23 7 -26 10 -52 7 -56
-3 -5 -45 -9 -95 -10 l-90 -1 0 82 c0 146 18 196 35 97z m5189 -70 c12 -117
17 -109 -70 -109 l-76 0 7 28 c10 40 25 51 25 18 0 -15 4 -25 10 -21 6 3 10
15 10 26 0 24 16 25 29 2 7 -14 12 -6 25 37 9 29 16 60 16 67 0 7 4 13 9 13 4
0 11 -28 15 -61z m130 -34 l14 -30 -5 40 -5 40 25 -25 c16 -15 29 -41 33 -67
l7 -43 -57 0 c-69 0 -71 4 -61 108 l8 77 14 -35 c7 -19 20 -48 27 -65z m-354
20 c5 -14 7 -38 4 -55 -6 -30 -7 -30 -73 -30 -36 0 -89 3 -118 6 l-52 7 42 43
c23 24 45 44 49 44 4 0 0 -16 -8 -36 -17 -40 -13 -54 11 -34 12 10 15 10 15
-4 0 -9 4 -16 9 -16 11 0 21 25 21 51 0 22 19 26 25 4 16 -50 17 -50 37 -2 11
26 22 47 24 47 3 0 9 -11 14 -25z m66 -82 c-11 -11 -17 4 -9 23 7 18 8 18 11
1 2 -10 1 -21 -2 -24z m394 -10 c0 -7 -4 -13 -10 -13 -5 0 -10 12 -10 28 0 21
2 24 10 12 5 -8 10 -21 10 -27z m-6126 -495 c3 -13 7 -42 10 -65 5 -37 4 -43
-12 -43 -10 0 -22 12 -29 29 -16 44 -53 63 -119 62 -31 0 -59 -2 -61 -5 -4 -3
-6 -138 -3 -196 0 -5 20 -10 45 -10 47 0 85 25 85 55 0 8 8 15 18 15 15 0 17
-11 17 -87 0 -93 -16 -122 -36 -64 -13 37 -30 47 -86 50 l-41 2 -4 -82 c-4
-114 2 -123 83 -127 55 -2 70 1 93 19 15 12 32 33 37 46 14 37 34 22 31 -23
-6 -87 14 -79 -196 -82 -148 -2 -187 0 -184 10 2 7 14 18 27 23 12 6 24 19 27
30 2 11 3 107 2 214 -3 182 -4 195 -23 205 -21 12 -35 26 -35 39 0 4 79 7 175
7 173 0 175 0 179 -22z m391 8 c34 -15 35 -17 35 -70 0 -49 -3 -56 -19 -56
-12 0 -22 9 -26 23 -19 66 -58 95 -114 82 -59 -13 -79 -79 -40 -129 12 -15 56
-44 99 -66 116 -59 157 -122 131 -203 -33 -98 -161 -133 -288 -77 -30 13 -41
23 -38 37 2 10 4 37 4 61 1 35 4 42 21 42 15 0 22 -11 31 -44 14 -57 37 -77
92 -83 79 -9 129 36 113 102 -8 33 -36 57 -104 90 -110 53 -153 102 -152 172
1 46 32 96 70 115 43 22 137 24 185 4z m515 -51 c0 -74 -20 -90 -40 -31 -12
36 -44 56 -90 56 l-30 0 0 -221 0 -221 30 -11 c17 -6 30 -17 30 -24 0 -10 -25
-13 -100 -13 -79 0 -100 3 -100 14 0 8 14 19 30 25 l30 10 0 220 0 221 -40 0
c-45 0 -75 -23 -86 -65 -4 -16 -13 -25 -26 -25 -18 0 -20 5 -14 31 3 17 6 47
6 65 l0 34 200 0 200 0 0 -65z m4791 20 c54 -28 76 -113 45 -174 -8 -15 -60
-71 -116 -124 l-101 -97 94 0 c96 0 117 8 117 42 0 12 8 18 24 18 21 0 24 -5
29 -66 4 -37 4 -71 1 -75 -5 -9 -394 -13 -394 -5 0 2 -2 11 -6 19 -3 9 32 47
101 108 130 115 165 164 165 230 0 58 -22 88 -70 95 -44 7 -86 -23 -95 -69
-12 -61 -16 -67 -40 -67 -22 0 -24 4 -27 69 -3 61 0 71 17 82 60 38 195 45
256 14z m533 10 c116 -30 186 -121 185 -240 0 -108 -50 -195 -136 -236 -130
-63 -289 -12 -356 115 -28 53 -31 184 -5 232 35 64 105 116 181 134 49 12 68
11 131 -5z m536 -15 c0 -11 -7 -20 -15 -20 -8 0 -24 -9 -35 -20 -18 -18 -20
-33 -20 -190 0 -157 2 -172 20 -190 11 -11 27 -20 35 -20 8 0 15 -9 15 -20 0
-19 -7 -20 -120 -20 -66 0 -120 3 -120 8 0 15 16 29 38 37 35 10 42 43 42 205
0 164 -7 196 -45 206 -16 4 -25 13 -25 25 0 18 9 19 115 19 108 0 115 -1 115
-20z m517 0 c2 -8 -33 -60 -77 -115 -44 -55 -80 -102 -80 -105 0 -3 20 -11 44
-18 87 -23 136 -90 136 -186 0 -100 -60 -178 -164 -212 -59 -20 -166 -15 -214
10 -37 19 -38 43 -1 38 121 -14 144 -13 189 10 79 40 113 128 77 198 -20 39
-74 70 -124 70 -30 0 -45 5 -49 15 -4 10 24 56 75 123 l82 107 -77 3 c-82 3
-117 -10 -129 -48 -7 -21 -30 -27 -40 -10 -4 6 -3 40 0 76 l7 64 172 -2 c142
-3 171 -5 173 -18z m-6276 -413 c25 -45 -33 -93 -81 -67 -16 9 -20 19 -18 43
5 54 75 71 99 24z m1194 -727 c3 -11 17 -23 31 -26 24 -6 24 -7 8 -25 -11 -12
-14 -27 -10 -44 7 -28 4 -30 -23 -13 -15 9 -25 9 -45 0 -25 -11 -26 -11 -20
14 4 17 1 31 -11 44 -17 18 -16 19 9 26 14 3 28 15 31 25 8 25 22 24 30 -1z
m562 -25 c24 -6 24 -7 9 -24 -12 -13 -15 -27 -10 -45 6 -26 5 -26 -21 -14 -20
9 -31 9 -46 0 -26 -16 -27 -16 -21 13 3 16 -2 33 -13 45 -17 18 -16 19 9 26
15 3 32 16 38 27 l11 22 10 -22 c5 -12 21 -24 34 -28z m1795 -78 l33 -13 -28
-18 c-21 -14 -27 -26 -27 -52 0 -39 -3 -41 -37 -15 -20 16 -29 18 -49 9 -31
-14 -39 -6 -26 29 8 24 6 33 -10 53 l-20 25 36 3 c26 2 41 11 53 29 l17 26 13
-31 c8 -20 25 -37 45 -45z m-1550 -187 c20 0 20 -1 5 -18 -10 -10 -17 -31 -17
-46 0 -24 -2 -25 -20 -16 -14 7 -26 8 -39 0 -29 -15 -34 -13 -28 12 4 15 -1
30 -15 45 l-21 23 26 0 c20 0 31 7 39 26 l12 26 19 -26 c10 -14 28 -26 39 -26z
m223 -260 c3 -11 17 -23 31 -26 24 -6 24 -7 8 -25 -11 -12 -14 -27 -10 -45 6
-23 5 -25 -11 -19 -22 10 -43 10 -64 1 -13 -6 -15 -1 -11 23 3 22 0 33 -12 37
-23 9 -20 21 8 28 14 3 28 15 31 26 8 26 22 26 30 0z m810 -180 c4 -13 15 -20
31 -20 28 0 31 -12 8 -31 -8 -7 -14 -22 -12 -34 4 -19 0 -21 -42 -21 -42 0
-46 2 -42 21 2 12 -4 27 -12 34 -23 19 -20 31 8 31 16 0 27 7 31 20 3 11 10
20 15 20 5 0 12 -9 15 -20z m-807 -290 c7 -11 21 -20 32 -20 24 0 26 -15 4
-24 -12 -5 -15 -14 -10 -37 5 -27 4 -30 -12 -24 -21 10 -42 10 -63 1 -13 -6
-16 -2 -11 19 3 16 -2 33 -13 45 -17 19 -17 20 3 20 12 0 27 9 34 20 7 11 15
20 18 20 3 0 11 -9 18 -20z m582 -80 c24 0 26 -13 5 -30 -10 -8 -13 -21 -8
-38 5 -22 4 -24 -13 -17 -24 9 -34 9 -56 0 -14 -6 -18 -2 -18 18 0 13 -7 30
-15 37 -22 18 -18 30 8 30 16 0 28 9 36 27 l13 28 14 -28 c9 -15 23 -27 34
-27z"/>
<path d="M5641 11418 c-23 -72 -45 -138 -48 -146 -5 -12 11 -14 105 -11 61 3
114 8 118 11 7 7 -116 278 -126 278 -3 0 -25 -59 -49 -132z"/>
<path d="M6170 10021 c-165 -34 -226 -225 -109 -342 20 -20 83 -59 141 -88 58
-28 117 -63 131 -77 29 -29 49 -85 40 -112 -21 -68 -56 -92 -133 -92 -96 0
-142 35 -165 128 -10 40 -16 47 -39 50 -32 4 -34 -1 -38 -97 l-4 -74 66 -31
c58 -28 74 -31 160 -31 78 0 102 4 135 22 91 49 135 137 114 232 -16 74 -53
110 -186 179 -65 33 -128 71 -140 84 -49 52 -52 127 -8 168 29 27 103 37 144
20 32 -13 71 -78 71 -118 0 -18 6 -22 35 -22 l35 0 0 78 0 79 -37 17 c-39 16
-133 37 -162 35 -9 -1 -32 -4 -51 -8z"/>
<path d="M5555 10003 c-16 -1 -58 -6 -92 -9 -57 -5 -63 -8 -63 -29 0 -17 7
-24 28 -28 18 -4 33 -16 40 -33 21 -45 53 -479 35 -459 -6 6 -110 126 -233
268 -214 248 -224 259 -253 253 -16 -3 -51 -6 -78 -6 -42 0 -49 -3 -49 -20 0
-13 11 -24 33 -33 17 -8 37 -20 43 -28 7 -8 19 -125 30 -290 17 -266 17 -278
0 -304 -10 -15 -27 -30 -37 -32 -12 -4 -19 -14 -19 -31 0 -24 2 -24 46 -18 26
3 76 6 111 6 64 0 64 0 61 28 -2 19 -9 28 -26 30 -31 5 -50 38 -57 102 -12
100 -31 420 -25 419 3 0 113 -124 244 -275 210 -239 243 -274 269 -274 l28 0
-6 68 c-11 129 -35 505 -35 555 0 42 4 53 30 77 30 28 41 71 18 69 -7 -1 -26
-4 -43 -6z"/>
<path d="M6600 9987 c0 -17 8 -25 32 -32 21 -7 34 -18 38 -35 12 -43 -4 -563
-18 -587 -7 -12 -24 -23 -39 -25 -22 -2 -29 -9 -31 -30 l-3 -28 135 0 c134 0
136 0 136 23 0 15 -11 27 -32 37 -19 9 -34 25 -38 40 -10 44 6 553 18 577 7
12 25 24 42 28 23 5 30 12 30 31 l0 24 -135 0 c-134 0 -135 0 -135 -23z"/>
<path d="M7270 9980 c-79 -16 -170 -70 -217 -128 -108 -133 -111 -352 -7 -504
92 -133 316 -176 509 -98 l50 20 1 93 c0 116 7 145 37 149 15 2 23 11 25 29
l3 26 -131 7 c-73 4 -134 5 -137 2 -15 -14 11 -46 43 -52 47 -9 56 -35 48
-135 -8 -98 -21 -112 -107 -117 -92 -6 -144 12 -198 67 -65 65 -91 139 -93
261 -1 154 44 249 143 304 45 24 64 28 127 28 95 0 140 -21 172 -82 12 -24 22
-62 22 -83 0 -38 1 -39 27 -32 35 8 43 21 43 70 0 22 4 57 9 77 l9 37 -55 21
c-105 39 -242 56 -323 40z"/>
<path d="M7860 9926 c0 -17 7 -26 25 -30 47 -12 48 -28 15 -304 -17 -141 -33
-269 -36 -285 -7 -35 -29 -57 -59 -57 -22 0 -45 -33 -32 -47 3 -2 59 -11 124
-19 65 -8 124 -16 131 -19 8 -3 12 6 12 24 0 23 -6 30 -25 35 -40 10 -45 41
-29 167 7 63 14 120 14 128 0 10 12 12 53 8 28 -4 103 -12 165 -18 104 -12
112 -14 112 -34 0 -51 -31 -250 -40 -260 -6 -5 -25 -15 -43 -21 -19 -6 -33
-18 -35 -30 -3 -18 7 -21 111 -32 62 -7 123 -16 135 -19 19 -4 22 -1 22 21 0
19 -7 29 -25 36 -14 5 -29 20 -34 33 -10 27 51 554 67 584 6 9 25 22 44 28 20
7 34 19 36 32 3 18 -6 21 -105 32 -59 6 -120 14 -135 18 -25 5 -28 2 -28 -21
0 -19 7 -29 25 -36 43 -16 48 -43 31 -169 -8 -62 -16 -115 -19 -117 -6 -6
-315 30 -322 37 -2 3 2 59 10 124 16 127 28 152 74 157 18 2 27 10 29 26 2 13
-2 22 -10 22 -7 0 -62 7 -123 15 -140 19 -135 19 -135 -9z"/>
<path d="M4333 9896 c-180 -58 -280 -226 -252 -423 19 -134 92 -243 204 -301
45 -25 60 -27 160 -27 100 0 115 3 166 28 274 134 268 576 -10 705 -67 32
-199 40 -268 18z m172 -70 c231 -108 266 -529 50 -612 -173 -66 -345 95 -362
336 -16 221 139 357 312 276z"/>
<path d="M8658 9755 c-24 -82 -25 -86 -7 -95 29 -16 35 -12 54 31 25 54 63 73
133 66 30 -3 55 -7 57 -9 7 -8 -108 -585 -120 -605 -10 -15 -27 -23 -52 -25
-30 -2 -39 -8 -41 -24 -3 -19 7 -23 110 -42 62 -12 128 -24 146 -28 29 -6 32
-4 32 18 0 18 -9 29 -35 41 -29 14 -35 22 -35 48 0 38 100 581 109 590 3 4 28
1 56 -6 65 -17 95 -51 95 -111 0 -42 1 -44 28 -44 29 0 29 1 41 87 13 92 10
103 -33 103 -10 0 -126 20 -257 45 -131 25 -242 45 -247 45 -5 0 -20 -38 -34
-85z"/>
<path d="M3420 9735 c-92 -19 -155 -37 -154 -44 2 -28 5 -31 25 -31 34 0 57
-18 68 -52 22 -71 112 -540 106 -557 -3 -10 -17 -23 -30 -29 -34 -16 -36 -67
-2 -59 12 3 72 15 133 27 107 21 111 23 106 46 -3 20 -10 24 -38 24 -24 0 -37
6 -45 23 -18 32 -60 240 -51 249 4 4 23 8 43 9 47 4 77 -18 225 -163 66 -65
124 -118 128 -118 4 0 45 10 92 21 75 19 85 24 82 43 -2 17 -12 22 -49 27 -68
10 -102 32 -201 127 -49 48 -99 92 -111 99 -12 6 -22 14 -22 16 0 3 19 19 42
36 122 88 110 281 -20 330 -48 19 -166 10 -327 -24z m257 -45 c60 -36 84 -118
54 -185 -22 -49 -57 -77 -128 -100 -84 -27 -83 -28 -115 130 -15 76 -25 142
-20 146 31 31 164 37 209 9z"/>
<path d="M9412 9649 c-85 -43 -127 -170 -87 -265 8 -20 43 -62 77 -93 171
-155 188 -180 167 -254 -21 -76 -109 -100 -199 -54 -64 33 -84 65 -85 140 -1
61 -1 62 -30 65 -29 3 -31 0 -53 -74 -26 -86 -27 -84 50 -140 89 -66 225 -92
306 -59 70 30 117 95 128 178 10 69 -22 122 -138 229 -106 98 -128 128 -128
180 0 75 63 124 138 107 72 -16 102 -61 102 -151 0 -35 2 -38 29 -38 32 0 31
-1 51 88 12 50 11 55 -10 77 -37 39 -137 79 -210 83 -52 2 -74 -1 -108 -19z"/>
<path d="M3045 9638 c-33 -10 -91 -25 -128 -34 -59 -15 -68 -20 -65 -38 2 -15
12 -22 37 -26 21 -3 41 -15 52 -30 17 -24 159 -518 159 -552 0 -9 -14 -28 -31
-41 -23 -18 -30 -29 -25 -44 7 -20 7 -20 89 4 45 13 103 28 130 34 26 6 47 14
47 19 0 27 -15 40 -46 40 -24 0 -38 6 -48 23 -17 26 -156 520 -156 553 0 23 7
33 43 57 13 9 16 18 10 33 -8 20 -8 20 -68 2z"/>
<path d="M6157 8735 c-427 -70 -789 -300 -1022 -650 -138 -207 -220 -438 -245
-690 -52 -519 188 -1053 607 -1352 l63 -45 0 -142 0 -143 402 -417 c220 -229
405 -415 410 -414 6 2 189 190 409 418 l399 415 0 136 0 136 43 28 c260 172
479 464 582 778 119 365 89 783 -81 1121 -213 423 -581 708 -1043 807 -128 27
-398 34 -524 14z m343 -225 c284 -30 539 -147 745 -342 405 -383 512 -989 260
-1482 -86 -168 -224 -332 -376 -446 -70 -52 -243 -148 -296 -164 -21 -7 -23
-4 -23 36 l0 44 78 38 c379 187 622 539 662 957 33 351 -108 719 -368 959
-112 104 -112 104 -112 27 l0 -63 62 -60 c162 -156 272 -369 308 -596 18 -109
8 -321 -18 -423 -82 -311 -282 -558 -569 -704 -38 -19 -48 -20 -88 -10 -130
33 -225 206 -274 500 -18 105 -40 356 -41 452 0 27 0 27 -70 27 l-70 0 0 -62
c0 -35 -5 -117 -10 -183 -38 -448 -142 -698 -306 -735 -32 -7 -47 -4 -103 25
-379 191 -618 630 -571 1051 28 256 132 477 305 650 l75 75 0 59 c0 33 -4 60
-9 60 -24 0 -161 -129 -231 -216 -184 -229 -280 -548 -251 -833 29 -277 129
-500 314 -697 111 -118 194 -181 325 -246 l102 -52 0 -43 c0 -24 -3 -43 -7
-43 -26 0 -241 117 -308 167 -328 246 -515 615 -515 1019 0 512 315 977 792
1168 193 78 390 107 588 86z"/>
<path d="M9116 3369 c-66 -18 -100 -76 -100 -174 0 -49 5 -80 18 -105 44 -83
111 -125 188 -118 82 8 121 66 121 178 0 140 -114 250 -227 219z"/>
</g>
</svg>
